PathFileType        4      (X/Y/Z)      C:\Users\pc\Desktop\IMUTRC\Sujet_02\Sujet_02_velo_80.trc         
DataRate	CameraRate	NumFrames	NumMarkers	Units	OrigDataRate	OrigDataStartFrame	OrigNumFrames
60.0	60.0	4	64	mm	60.0	119	945
Frame#	Time	pHipOrigin			pRightASI			pLeftASI			pRightCSI			pLeftCSI			pRightIschialTub			pLeftIschialTub			pSacrum			pL5SpinalProcess			pL3SpinalProcess			pT12SpinalProcess			pIJ			pT4SpinalProcess			pT8SpinalProcess			pPX			pC7SpinalProcess			pTopOfHead			pRightAuricularis			pLeftAuricularis			pBackOfHead			pRightAcromion			pLeftAcromion			pRightArmLatEpicondyle			pRightArmMedEpicondyle			pLeftArmLatEpicondyle			pLeftArmMedEpicondyle			pRightUlnarStyloid			pRightRadialStyloid			pRightOlecranon			pLeftUlnarStyloid			pLeftRadialStyloid			pLeftOlecranon			pRightTopOfHand			pRightPinky			pRightBallHand			pLeftTopOfHand			pLeftPinky			pLeftBallHand			pRightGreaterTrochanter			pRightKneeLatEpicondyle			pRightKneeMedEpicondyle			pRightPatella			pLeftGreaterTrochanter			pLeftKneeLatEpicondyle			pLeftKneeMedEpicondyle			pLeftPatella			pRightTibialTub			pRightLatMalleolus			pRightMedMalleolus			pLeftTibialTub			pLeftLatMalleolus			pLeftMedMalleolus			pRightHeelFoot			pRightFirstMetatarsal			pRightFifthMetatarsal			pRightPivotFoot			pRightHeelCenter			pRightToe			pLeftHeelFoot			pLeftFirstMetatarsal			pLeftFifthMetatarsal			pLeftPivotFoot			pLeftHeelCenter			pLeftToe			
		X1	Y1	Z1	X2	Y2	Z2	X3	Y3	Z3	X4	Y4	Z4	X5	Y5	Z5	X6	Y6	Z6	X7	Y7	Z7	X8	Y8	Z8	X9	Y9	Z9	X10	Y10	Z10	X11	Y11	Z11	X12	Y12	Z12	X13	Y13	Z13	X14	Y14	Z14	X15	Y15	Z15	X16	Y16	Z16	X17	Y17	Z17	X18	Y18	Z18	X19	Y19	Z19	X20	Y20	Z20	X21	Y21	Z21	X22	Y22	Z22	X23	Y23	Z23	X24	Y24	Z24	X25	Y25	Z25	X26	Y26	Z26	X27	Y27	Z27	X28	Y28	Z28	X29	Y29	Z29	X30	Y30	Z30	X31	Y31	Z31	X32	Y32	Z32	X33	Y33	Z33	X34	Y34	Z34	X35	Y35	Z35	X36	Y36	Z36	X37	Y37	Z37	X38	Y38	Z38	X39	Y39	Z39	X40	Y40	Z40	X41	Y41	Z41	X42	Y42	Z42	X43	Y43	Z43	X44	Y44	Z44	X45	Y45	Z45	X46	Y46	Z46	X47	Y47	Z47	X48	Y48	Z48	X49	Y49	Z49	X50	Y50	Z50	X51	Y51	Z51	X52	Y52	Z52	X53	Y53	Z53	X54	Y54	Z54	X55	Y55	Z55	X56	Y56	Z56	X57	Y57	Z57	X58	Y58	Z58	X59	Y59	Z59	X60	Y60	Z60	X61	Y61	Z61	X62	Y62	Z62	X63	Y63	Z63	X64	Y64	Z64	
119	1.967	0.0	1250.02096	7.654170837655508E-14	61.43567000000001	1367.41	139.6573600000001	48.888549999999995	1361.53207	-149.0959599999999	3.278080000000007	1430.42819	114.78919000000009	-7.008300000000007	1425.62412	-121.85400999999992	-47.30602999999999	1182.98995	62.73560000000007	-52.44922	1180.55965	-55.61425999999993	-73.47413	1262.11593	2.9389700000000816	-46.11914	1377.30075	0.6782200000000872	4.69104	1488.13364	6.838750000000092	62.05738	1583.81956	16.164310000000093	326.62075	1605.63573	19.103270000000077	214.48793	1715.7904	37.245730000000094	136.26624	1664.52806	27.637580000000096	222.79616	1531.31382	5.256230000000081	268.18056	1745.85827	43.57581000000009	507.14102	1750.09716	58.32715000000008	416.76785	1720.08581	111.17200000000007	425.92386	1750.54931	-14.18615999999992	411.85074	1784.0083	59.62708000000008	233.42165000000003	1692.90038	235.39980000000008	260.21144	1735.45885	-167.35144999999991	293.38784	1412.68137	309.7217000000001	256.98989	1386.56979	262.86782000000005	353.41055	1452.86606	-180.12464999999995	311.92592	1432.01071	-134.96631999999994	403.25991	1153.26118	362.4535200000001	439.65787	1166.14742	318.36904000000004	254.78566000000004	1400.92551	308.47829000000013	467.86063	1200.90633	-237.83008999999996	507.31058	1217.35323	-197.81494999999995	310.56948	1441.56235	-177.92041999999995	584.00626	1067.40949	322.49489	503.58036	1082.9521	362.1144	441.07083	1125.05842	346.11965000000004	652.73283	1149.47444	-150.00024999999997	582.53678	1145.63118	-207.81873999999996	512.8494	1178.01631	-212.67933999999994	16.44690000000001	1250.69918	181.3115400000001	412.58548	1054.46674	256.36818000000005	431.46267	1045.14118	172.32508000000004	441.18387	1094.31233	210.75770000000003	2.486819999999989	1209.72322	-174.4162699999999	281.85805	859.76031	-151.58276999999998	299.88747	871.0075	-67.65270999999996	326.45119	897.23211	-118.51941999999995	448.5878	994.44404	212.17067000000003	160.96485	686.36137	116.25867000000002	182.95057	693.53923	51.82752000000003	347.98476	827.26214	-114.67615999999995	242.80373	409.58999	-150.84803	249.07729	407.66836	-82.68664999999999	72.73938	627.9777	30.011350000000036	217.70949	512.00162	40.46729000000001	179.72902	504.0325	119.31068000000002	216.69215	491.65494	85.56910000000002	102.35511	598.70109	41.31507000000003	276.09316	437.00149	108.68519000000002	162.20826	312.94326	-96.47718	334.25075	242.46462	-99.75526	311.53029	244.32973	-184.64613	345.38491	233.81728	-147.23084	200.24525	295.4225	-106.98963	420.66763	202.67555	-168.02967000000004	
120	1.983	0.0	1250.02096	7.654170837655508E-14	61.26612000000001	1367.52304	139.6008400000001	49.17114999999999	1361.306	-149.1524799999999	3.2215600000000073	1430.59775	114.56312000000008	-6.725710000000007	1425.45456	-122.08008999999991	-47.47558999999999	1183.10298	62.73560000000007	-52.44922	1180.50313	-55.61425999999993	-73.47413	1262.17245	2.8259300000000818	-46.06263	1377.35727	0.39563000000008713	4.74756	1488.07712	6.725710000000092	62.05738	1583.81956	16.27734000000009	326.62075	1605.80528	20.23364000000008	214.31837	1715.84691	38.036990000000095	136.15321	1664.52806	28.089720000000096	222.90919	1531.37034	5.877930000000081	267.95449	1745.91479	44.53662000000009	506.85843	1750.77538	60.248780000000075	416.37222	1720.48144	112.75452000000007	425.92386	1751.00146	-12.60363999999992	411.45511	1784.34741	61.15308000000008	233.19557000000003	1693.46557	236.0215000000001	260.83315	1736.92834	-166.1080399999999	293.33132	1413.35959	310.2303700000001	257.10292	1387.24802	263.26345000000003	353.97573	1454.22251	-180.63330999999994	312.37807	1433.14109	-135.64453999999995	403.25991	1153.82637	362.39700000000005	439.65787	1166.76912	318.36904000000004	254.78566000000004	1401.54721	308.9869600000001	468.03018	1201.86714	-238.33875999999995	507.48014	1218.25753	-198.26709999999994	311.07815	1442.86228	-178.54212999999993	584.06278	1068.08772	322.55141	503.58036	1083.5738	362.1144	441.12735	1125.62361	346.11965000000004	652.90239	1150.54829	-150.45239999999998	582.76286	1146.64851	-208.27088999999998	513.01895	1179.03365	-213.18799999999993	16.84253000000001	1252.16866	181.2550200000001	420.61111	1072.15705	256.25514000000004	439.48831	1062.83149	172.26857000000004	447.45743	1112.68086	210.13600000000002	1.1868899999999893	1209.44063	-174.4162699999999	269.14138	850.6043	-152.71313999999998	287.7925	861.22979	-68.78308999999996	315.03444	886.60663	-119.76282999999995	457.34817	1012.75605	211.37941000000004	173.22938	699.5302	122.02357000000003	193.51954	707.10368	57.140260000000026	334.92898	816.97576	-115.46740999999996	223.81349	400.94265	-152.93921999999998	229.57838	398.90799	-84.77783999999998	87.37769	636.00334	35.88928000000003	237.32143	526.866	49.453740000000025	199.05836	518.50125	128.18409000000003	236.81276	507.25406	94.89466000000002	118.18031	608.25273	47.92774000000003	298.53103	455.65262	119.42371000000001	140.10951	306.6697	-98.56837	310.00429	231.10439	-101.73341	287.39687	233.5912	-186.62428	320.91237	222.06142	-149.15248000000003	177.63783	288.07509	-109.08082	395.23428	188.65895	-169.89479000000003	
121	2.0	0.0	1250.02096	7.654170837655508E-14	61.15308000000001	1367.6926	139.54432000000008	49.39721999999999	1361.13644	-149.20898999999991	3.108520000000007	1430.71079	114.33704000000009	-6.556150000000007	1425.34152	-122.30615999999992	-47.532109999999996	1183.1595	62.73560000000007	-52.3927	1180.50313	-55.55773999999993	-73.47413	1262.22897	2.7128900000000815	-46.06263	1377.35727	0.22607000000008717	4.74756	1488.07712	6.612670000000091	62.00086	1583.81956	16.333860000000094	326.56423	1605.80528	21.250980000000077	214.20534	1715.84691	38.77173000000009	136.09669	1664.52806	28.428830000000097	222.90919	1531.42686	6.499630000000081	267.78493	1745.91479	45.49744000000009	506.57584	1751.28405	62.05738000000008	415.97659	1720.70751	114.16749000000007	425.86734	1751.22753	-11.13415999999992	411.05948	1784.57348	62.62256000000008	233.02602000000002	1693.97423	236.5866900000001	261.34181	1738.22826	-164.9776699999999	293.33132	1413.92478	310.7390300000001	257.21596	1387.8132	263.7155900000001	354.42788	1455.4094	-180.91590999999994	312.71718	1434.1019	-136.15320999999994	403.25991	1154.222	362.4535200000001	439.60135	1167.22127	318.4255600000001	254.84218000000004	1402.1124	309.43911000000014	468.0867	1202.82796	-238.79090999999994	507.53665	1219.16182	-198.71924999999993	311.47378	1443.99265	-178.93775999999994	584.00626	1068.48335	322.77749	503.58036	1084.02595	362.28396	441.07083	1126.07576	346.23269000000005	653.01542	1151.56563	-150.84802999999997	582.87589	1147.60933	-208.66651999999996	513.13199	1179.93794	-213.58362999999994	17.23816000000001	1253.41207	181.19850000000008	427.11075	1087.36055	255.40737000000001	445.81839	1077.97846	171.36427000000003	452.31802	1128.39302	208.83607000000003	0.2260699999999893	1209.21456	-174.4162699999999	259.81581	844.21771	-153.33484999999996	278.91909	854.39105	-69.46130999999995	306.61318	879.14618	-120.49756999999995	465.09122	1028.58124	210.07948000000002	186.34169	708.46013	128.46668000000005	204.82326	716.42925	63.018190000000025	324.98171	809.11968	-115.80652999999997	204.82326	395.74295	-154.80432999999996	210.02296	393.42569	-86.58642999999998	103.31592	639.8466	42.72803000000003	258.12026	538.22623	59.11841000000002	219.80067	529.46586	137.73573000000002	258.23329	519.40555	104.95496000000001	135.30543	613.79154	55.44471000000003	322.15578	471.19522	130.78394	117.67164	304.52199	-100.60303	284.85353	223.13527	-103.65504	262.47219	226.52638	-188.60243000000003	295.47902	213.80971	-151.13063000000002	154.52174	284.62746	-111.11549	368.67056	177.8639	-171.81642000000002	
122	2.017	0.0	1250.02096	7.654170837655508E-14	60.983520000000006	1367.80563	139.48780000000008	49.510259999999995	1361.02341	-149.26550999999992	2.938970000000007	1430.82382	114.22401000000009	-6.499630000000007	1425.22849	-122.47571999999991	-47.588629999999995	1183.21602	62.73560000000007	-52.27967	1180.39009	-55.55773999999993	-73.47413	1262.17245	2.6563700000000816	-46.06263	1377.35727	0.05652000000008716	4.74756	1488.07712	6.556150000000091	62.00086	1583.76304	16.446900000000092	326.56423	1605.57921	22.324830000000077	214.20534	1715.67736	39.449950000000094	136.09669	1664.47155	28.824460000000094	222.90919	1531.2573	7.064820000000081	267.78493	1745.68871	46.458260000000095	506.51932	1751.34057	63.69642000000008	415.80703	1720.53796	115.58045000000007	426.03689	1751.22753	-9.66466999999992	410.94644	1784.46044	64.03553000000008	232.91298000000003	1694.20031	237.1518700000001	261.907	1739.2456	-163.8472999999999	293.61391	1414.20737	311.1346600000001	257.44203	1388.03928	264.16774000000004	354.65395	1456.25718	-180.85938999999993	312.83022	1434.83664	-136.32275999999993	403.25991	1154.27852	362.73611000000005	439.65787	1167.27779	318.7646700000001	255.12477000000004	1402.33847	309.8912600000001	468.03018	1203.50618	-239.01697999999993	507.53665	1219.84005	-199.00183999999993	311.64333	1444.78391	-178.93775999999994	584.00626	1068.42683	323.22964	503.52384	1084.02595	362.67959	441.07083	1126.13228	346.5152800000001	653.01542	1152.41341	-151.13062999999997	582.87589	1148.40059	-208.94910999999996	513.13199	1180.67269	-213.86622999999994	17.633790000000012	1254.37289	181.14198000000007	432.19742	1099.73811	253.99440000000004	450.7355	1090.46907	169.89479000000003	456.10477	1141.16621	207.08400000000003	-0.45215000000001065	1208.81893	-174.3597499999999	254.50307	840.544	-153.27832999999998	274.00197	850.71734	-69.51782999999996	301.8091	874.9638	-120.72363999999996	471.87344	1041.86311	208.21437000000003	200.92348	712.9251	135.75758000000005	217.31386	721.06377	69.80042000000003	318.65163	803.6939	-115.63696999999998	185.94606	394.32998	-156.16077999999996	190.58058	391.78665	-87.88635999999998	120.83668	639.16838	50.697150000000036	280.33205	545.46061	69.40479000000002	242.18202	536.3046	148.0221	281.17983	527.48771	115.52393000000001	154.01307	614.97843	63.97901000000003	347.25002	482.95108	142.31373	95.0077	306.72622	-102.46814999999998	258.855	218.78334	-105.52015	236.75624	223.36134	-190.46754000000004	269.19789	209.2317	-152.93922000000003	131.06654	285.41872	-112.9806	340.86343	170.51649	-173.68153000000004	
